<svg id="visual" viewBox="0 0 900 600" width="900" height="600" xmlns="http://www.w3.org/2000/svg" xmlns:xlink="http://www.w3.org/1999/xlink" version="1.1"><path d="M0 454L25 453.7C50 453.3 100 452.7 150 448.2C200 443.7 250 435.3 300 441.8C350 448.3 400 469.7 450 470.7C500 471.7 550 452.3 600 442.5C650 432.7 700 432.3 750 436.5C800 440.7 850 449.3 875 453.7L900 458L900 601L875 601C850 601 800 601 750 601C700 601 650 601 600 601C550 601 500 601 450 601C400 601 350 601 300 601C250 601 200 601 150 601C100 601 50 601 25 601L0 601Z" fill="#dddddd"></path><path d="M0 524L25 518.3C50 512.7 100 501.3 150 492.7C200 484 250 478 300 483.2C350 488.3 400 504.7 450 512.5C500 520.3 550 519.7 600 517.8C650 516 700 513 750 511C800 509 850 508 875 507.5L900 507L900 601L875 601C850 601 800 601 750 601C700 601 650 601 600 601C550 601 500 601 450 601C400 601 350 601 300 601C250 601 200 601 150 601C100 601 50 601 25 601L0 601Z" fill="#a9abae"></path><path d="M0 521L25 524.8C50 528.7 100 536.3 150 531.8C200 527.3 250 510.7 300 502C350 493.3 400 492.7 450 501.3C500 510 550 528 600 532.3C650 536.7 700 527.3 750 520.8C800 514.3 850 510.7 875 508.8L900 507L900 601L875 601C850 601 800 601 750 601C700 601 650 601 600 601C550 601 500 601 450 601C400 601 350 601 300 601C250 601 200 601 150 601C100 601 50 601 25 601L0 601Z" fill="#787c81"></path><path d="M0 571L25 563.8C50 556.7 100 542.3 150 536.5C200 530.7 250 533.3 300 537.3C350 541.3 400 546.7 450 552C500 557.3 550 562.7 600 560.5C650 558.3 700 548.7 750 546.5C800 544.3 850 549.7 875 552.3L900 555L900 601L875 601C850 601 800 601 750 601C700 601 650 601 600 601C550 601 500 601 450 601C400 601 350 601 300 601C250 601 200 601 150 601C100 601 50 601 25 601L0 601Z" fill="#495057"></path></svg>