<svg id="visual" viewBox="0 0 900 600" width="900" height="600" xmlns="http://www.w3.org/2000/svg" xmlns:xlink="http://www.w3.org/1999/xlink" version="1.1"><rect x="0" y="0" width="900" height="600" fill="#ddd"></rect><path d="M0 326L30 303C60 280 120 234 180 224.8C240 215.7 300 243.3 360 267.2C420 291 480 311 540 322C600 333 660 335 720 308.5C780 282 840 227 870 199.5L900 172L900 0L870 0C840 0 780 0 720 0C660 0 600 0 540 0C480 0 420 0 360 0C300 0 240 0 180 0C120 0 60 0 30 0L0 0Z" fill="#212529" stroke-linecap="round" stroke-linejoin="miter"></path></svg>