<svg id="visual" viewBox="0 0 900 600" width="900" height="600" xmlns="http://www.w3.org/2000/svg" xmlns:xlink="http://www.w3.org/1999/xlink" version="1.1"><rect x="0" y="0" width="900" height="600" fill="#ddd"></rect><defs><linearGradient id="grad1_0" x1="33.3%" y1="0%" x2="100%" y2="100%"><stop offset="20%" stop-color="#212529" stop-opacity="1"></stop><stop offset="80%" stop-color="#212529" stop-opacity="1"></stop></linearGradient></defs><defs><linearGradient id="grad1_1" x1="33.3%" y1="0%" x2="100%" y2="100%"><stop offset="20%" stop-color="#212529" stop-opacity="1"></stop><stop offset="80%" stop-color="#787a7d" stop-opacity="1"></stop></linearGradient></defs><defs><linearGradient id="grad1_2" x1="33.3%" y1="0%" x2="100%" y2="100%"><stop offset="20%" stop-color="#dddddd" stop-opacity="1"></stop><stop offset="80%" stop-color="#787a7d" stop-opacity="1"></stop></linearGradient></defs><defs><linearGradient id="grad2_0" x1="0%" y1="0%" x2="66.7%" y2="100%"><stop offset="20%" stop-color="#212529" stop-opacity="1"></stop><stop offset="80%" stop-color="#212529" stop-opacity="1"></stop></linearGradient></defs><defs><linearGradient id="grad2_1" x1="0%" y1="0%" x2="66.7%" y2="100%"><stop offset="20%" stop-color="#787a7d" stop-opacity="1"></stop><stop offset="80%" stop-color="#212529" stop-opacity="1"></stop></linearGradient></defs><defs><linearGradient id="grad2_2" x1="0%" y1="0%" x2="66.7%" y2="100%"><stop offset="20%" stop-color="#787a7d" stop-opacity="1"></stop><stop offset="80%" stop-color="#dddddd" stop-opacity="1"></stop></linearGradient></defs><g transform="translate(900, 0)"><path d="M0 297.5C-19.4 248.6 -38.9 199.8 -80 193.1C-121.1 186.4 -183.8 221.8 -210.3 210.3C-236.8 198.9 -227.1 140.5 -235.6 97.6C-244.1 54.7 -270.8 27.4 -297.5 0L0 0Z" fill="#a9aaac"></path><path d="M0 198.3C-13 165.8 -25.9 133.2 -53.3 128.7C-80.7 124.3 -122.6 147.9 -140.2 140.2C-157.9 132.6 -151.4 93.6 -157.1 65.1C-162.7 36.5 -180.5 18.2 -198.3 0L0 0Z" fill="#4a4e51"></path><path d="M0 99.2C-6.5 82.9 -13 66.6 -26.7 64.4C-40.4 62.1 -61.3 73.9 -70.1 70.1C-78.9 66.3 -75.7 46.8 -78.5 32.5C-81.4 18.2 -90.3 9.1 -99.2 0L0 0Z" fill="#212529"></path></g><g transform="translate(0, 600)"><path d="M0 -297.5C41.2 -296.6 82.4 -295.8 113.8 -274.8C145.3 -253.8 167.1 -212.6 177.5 -177.5C187.9 -142.4 187 -113.5 205.1 -85C223.2 -56.4 260.3 -28.2 297.5 0L0 0Z" fill="#a9aaac"></path><path d="M0 -198.3C27.5 -197.8 54.9 -197.2 75.9 -183.2C96.9 -169.2 111.4 -141.7 118.3 -118.3C125.3 -94.9 124.7 -75.7 136.7 -56.6C148.8 -37.6 173.6 -18.8 198.3 0L0 0Z" fill="#4a4e51"></path><path d="M0 -99.2C13.7 -98.9 27.5 -98.6 37.9 -91.6C48.4 -84.6 55.7 -70.9 59.2 -59.2C62.6 -47.5 62.3 -37.8 68.4 -28.3C74.4 -18.8 86.8 -9.4 99.2 0L0 0Z" fill="#212529"></path></g></svg>