<svg id="visual" viewBox="0 0 900 600" width="900" height="600" xmlns="http://www.w3.org/2000/svg" xmlns:xlink="http://www.w3.org/1999/xlink" version="1.1"><rect x="0" y="0" width="900" height="600" fill="#ddd"></rect><path d="M0 244L75 244L75 309L150 309L150 261L225 261L225 237L300 237L300 253L375 253L375 327L450 327L450 309L525 309L525 291L600 291L600 323L675 323L675 256L750 256L750 257L825 257L825 242L900 242L900 238L900 601L900 601L825 601L825 601L750 601L750 601L675 601L675 601L600 601L600 601L525 601L525 601L450 601L450 601L375 601L375 601L300 601L300 601L225 601L225 601L150 601L150 601L75 601L75 601L0 601Z" fill="#c8c8c8"></path><path d="M0 390L75 390L75 345L150 345L150 307L225 307L225 368L300 368L300 392L375 392L375 332L450 332L450 312L525 312L525 366L600 366L600 303L675 303L675 331L750 331L750 343L825 343L825 398L900 398L900 326L900 601L900 601L825 601L825 601L750 601L750 601L675 601L675 601L600 601L600 601L525 601L525 601L450 601L450 601L375 601L375 601L300 601L300 601L225 601L225 601L150 601L150 601L75 601L75 601L0 601Z" fill="#c2c2c2"></path><path d="M0 423L75 423L75 399L150 399L150 428L225 428L225 405L300 405L300 380L375 380L375 393L450 393L450 450L525 450L525 397L600 397L600 407L675 407L675 404L750 404L750 445L825 445L825 369L900 369L900 433L900 601L900 601L825 601L825 601L750 601L750 601L675 601L675 601L600 601L600 601L525 601L525 601L450 601L450 601L375 601L375 601L300 601L300 601L225 601L225 601L150 601L150 601L75 601L75 601L0 601Z" fill="#bdbdbd"></path><path d="M0 461L75 461L75 464L150 464L150 503L225 503L225 477L300 477L300 475L375 475L375 457L450 457L450 497L525 497L525 470L600 470L600 506L675 506L675 502L750 502L750 463L825 463L825 443L900 443L900 497L900 601L900 601L825 601L825 601L750 601L750 601L675 601L675 601L600 601L600 601L525 601L525 601L450 601L450 601L375 601L375 601L300 601L300 601L225 601L225 601L150 601L150 601L75 601L75 601L0 601Z" fill="#b7b7b7"></path><path d="M0 546L75 546L75 531L150 531L150 542L225 542L225 516L300 516L300 504L375 504L375 563L450 563L450 540L525 540L525 544L600 544L600 506L675 506L675 531L750 531L750 497L825 497L825 544L900 544L900 556L900 601L900 601L825 601L825 601L750 601L750 601L675 601L675 601L600 601L600 601L525 601L525 601L450 601L450 601L375 601L375 601L300 601L300 601L225 601L225 601L150 601L150 601L75 601L75 601L0 601Z" fill="#b2b2b2"></path></svg>