<svg id="visual" viewBox="0 0 900 600" width="900" height="600" xmlns="http://www.w3.org/2000/svg" xmlns:xlink="http://www.w3.org/1999/xlink" version="1.1"><rect width="900" height="600" fill="#ddd"></rect><g><g transform="translate(409 409)"><path d="M0 -97.5L84.4 -48.7L84.4 48.7L0 97.5L-84.4 48.7L-84.4 -48.7Z" fill="none" stroke="#212529" stroke-width="2"></path></g><g transform="translate(41 313)"><path d="M0 -73L63.2 -36.5L63.2 36.5L0 73L-63.2 36.5L-63.2 -36.5Z" fill="none" stroke="#212529" stroke-width="2"></path></g><g transform="translate(263 108)"><path d="M0 -72L62.4 -36L62.4 36L0 72L-62.4 36L-62.4 -36Z" fill="none" stroke="#212529" stroke-width="2"></path></g><g transform="translate(696 305)"><path d="M0 -61L52.8 -30.5L52.8 30.5L0 61L-52.8 30.5L-52.8 -30.5Z" stroke="#212529" fill="none" stroke-width="2"></path></g><g transform="translate(892 310)"><path d="M0 -60L52 -30L52 30L0 60L-52 30L-52 -30Z" stroke="#212529" fill="none" stroke-width="2"></path></g><g transform="translate(183 500)"><path d="M0 -59L51.1 -29.5L51.1 29.5L0 59L-51.1 29.5L-51.1 -29.5Z" stroke="#212529" fill="none" stroke-width="2"></path></g><g transform="translate(839 530)"><path d="M0 -50L43.3 -25L43.3 25L0 50L-43.3 25L-43.3 -25Z" stroke="#212529" fill="none" stroke-width="2"></path></g><g transform="translate(790 120)"><path d="M0 -71L61.5 -35.5L61.5 35.5L0 71L-61.5 35.5L-61.5 -35.5Z" stroke="#212529" fill="none" stroke-width="2"></path></g><g transform="translate(503 193)"><path d="M0 -70L60.6 -35L60.6 35L0 70L-60.6 35L-60.6 -35Z" stroke="#212529" fill="none" stroke-width="2"></path></g><g transform="translate(588 499)"><path d="M0 -46L39.8 -23L39.8 23L0 46L-39.8 23L-39.8 -23Z" stroke="#212529" fill="none" stroke-width="2"></path></g><g transform="translate(66 44)"><path d="M0 -68L58.9 -34L58.9 34L0 68L-58.9 34L-58.9 -34Z" stroke="#212529" fill="none" stroke-width="2"></path></g><g transform="translate(619 2)"><path d="M0 -76L65.8 -38L65.8 38L0 76L-65.8 38L-65.8 -38Z" stroke="#212529" fill="none" stroke-width="2"></path></g></g></svg>